<svg width="728" height="554" viewBox="0 0 728 554" fill="none" xmlns="http://www.w3.org/2000/svg">
  <defs>
    <linearGradient id="a" x1="364" y1="0" x2="364" y2="554" gradientUnits="userSpaceOnUse">
      <stop offset="0" stop-color="#16202c"/>
      <stop offset=".5" stop-color="#111a24"/>
      <stop offset="1" stop-color="#090e15"/>
    </linearGradient>
    <linearGradient id="d" x1="247" y1="151" x2="484" y2="470" gradientUnits="userSpaceOnUse">
      <stop offset="0" stop-color="#fcfbf8"/>
      <stop offset=".5" stop-color="#f8f7f2"/>
      <stop offset=".78" stop-color="#f3f2ec"/>
      <stop offset="1" stop-color="#edece5"/>
    </linearGradient>
    <linearGradient id="g" x1="192" y1="318" x2="350" y2="472" gradientUnits="userSpaceOnUse">
      <stop offset="0" stop-color="#e7effb"/>
      <stop offset=".3" stop-color="#d9e5f7"/>
      <stop offset=".62" stop-color="#c4d6ef"/>
      <stop offset="1" stop-color="#a9c0e1"/>
    </linearGradient>
    <linearGradient id="h" x1="192" y1="386" x2="350" y2="472" gradientUnits="userSpaceOnUse">
      <stop offset="0" stop-color="#7e9cca"/>
      <stop offset=".32" stop-color="#6b8abd"/>
      <stop offset=".66" stop-color="#5775aa"/>
      <stop offset="1" stop-color="#3f5786"/>
    </linearGradient>
    <linearGradient id="j" x1="347" y1="263" x2="535" y2="447" gradientUnits="userSpaceOnUse">
      <stop offset="0" stop-color="#f1f7ff"/>
      <stop offset=".3" stop-color="#a9cbfc"/>
      <stop offset=".62" stop-color="#7cadf7"/>
      <stop offset="1" stop-color="#5c9cf1"/>
    </linearGradient>
    <linearGradient id="k" x1="347" y1="357" x2="535" y2="474" gradientUnits="userSpaceOnUse">
      <stop offset="0" stop-color="#0d47c9"/>
      <stop offset=".3" stop-color="#1550d3"/>
      <stop offset=".62" stop-color="#2358ce"/>
      <stop offset="1" stop-color="#33479f"/>
    </linearGradient>
    <radialGradient id="b" cx="0" cy="0" r="1" gradientUnits="userSpaceOnUse" gradientTransform="rotate(42 -31.83 423.2)scale(375 335)">
      <stop offset="0" stop-color="#26364a" stop-opacity=".24"/>
      <stop offset=".52" stop-color="#1e2d3e" stop-opacity=".07"/>
      <stop offset="1" stop-color="#0d1520" stop-opacity="0"/>
    </radialGradient>
    <radialGradient id="e" cx="0" cy="0" r="1" gradientUnits="userSpaceOnUse" gradientTransform="matrix(0 245 -280 0 356 205)">
      <stop offset="0" stop-color="#fff" stop-opacity=".16"/>
      <stop offset=".46" stop-color="#fff" stop-opacity=".055"/>
      <stop offset=".78" stop-color="#fff" stop-opacity=".016"/>
      <stop offset="1" stop-color="#fff" stop-opacity="0"/>
    </radialGradient>
    <radialGradient id="m" cx="0" cy="0" r="1" gradientUnits="userSpaceOnUse" gradientTransform="matrix(-185 0 0 -112 520 455)">
      <stop offset="0" stop-color="#1332a0" stop-opacity=".17"/>
      <stop offset=".56" stop-color="#1b4199" stop-opacity=".055"/>
      <stop offset="1" stop-color="#1b3f92" stop-opacity="0"/>
    </radialGradient>
    <clipPath id="f">
      <path d="M470 151H252c-33.137 0-60 26.863-60 60v199c0 33.137 26.863 60 60 60h218c33.137 0 60-26.863 60-60V211c0-33.137-26.863-60-60-60"/>
    </clipPath>
    <filter id="c" x="-25%" y="-25%" width="150%" height="165%" color-interpolation-filters="sRGB">
      <feDropShadow dx="0" dy="6" stdDeviation="8" flood-color="#000" flood-opacity=".18"/>
    </filter>
      <radialGradient id="sh" cx="0" cy="0" r="1" gradientUnits="userSpaceOnUse" gradientTransform="matrix(0 185 -215 0 530 470)">
      <stop offset="0" stop-color="#16233a" stop-opacity=".14"/>
      <stop offset=".5" stop-color="#1b2c47" stop-opacity=".05"/>
      <stop offset="1" stop-color="#1e3350" stop-opacity="0"/>
    </radialGradient>
  </defs>
  <path fill="url(#a)" d="M0 0h728v554H0z"/>
  <path fill="url(#b)" d="M0 0h728v554H0z"/>
  <rect x="133" y="81" width="458" height="444" rx="104" stroke="#344256" stroke-opacity=".55" stroke-width="1.5"/>
  <rect x="192" y="151" width="338" height="319" rx="60" fill="#000" fill-opacity=".12" filter="url(#c)"/>
  <g clip-path="url(#f)">
    <rect x="190" y="149" width="342" height="323" rx="62" fill="url(#d)"/>
    <rect x="190" y="149" width="342" height="323" rx="62" fill="url(#e)"/>
    <path d="M188 316c66 0 126 35 159 154V480H188z" fill="url(#g)"/>
    <path d="M188 383c67 0 124 30 159 87V480H188z" fill="url(#h)"/>
    <path d="M347 470c3-123 71-210 187-210v104c-89 0-150 36-187 106" fill="url(#j)"/>
    <path d="M347 470c37-70 98-106 187-106v110H347Z" fill="url(#k)"/>
    <path fill="url(#m)" d="M350 352h186v123H350z"/>
      <rect x="320" y="300" width="220" height="180" fill="url(#sh)"/>
  </g>
</svg>